<svg width="24" height="24" viewBox="0 0 24 24" fill="none" xmlns="http://www.w3.org/2000/svg">
  <circle cx="12" cy="12" r="10" fill="currentColor" opacity="0.1"/>
  <path d="M8 10.5C8 9.67 8.67 9 9.5 9S11 9.67 11 10.5 10.33 12 9.5 12 8 11.33 8 10.5Z" fill="currentColor"/>
  <path d="M13 10.5C13 9.67 13.67 9 14.5 9S16 9.67 16 10.5 15.33 12 14.5 12 13 11.33 13 10.5Z" fill="currentColor"/>
  <path d="M8 15C8 13.34 9.79 12 12 12S16 13.34 16 15" stroke="currentColor" stroke-width="1.5" stroke-linecap="round"/>
  <path d="M12 6V8M6 12H8M18 12H16M9.17 7.17L10.59 8.59M14.83 7.17L13.41 8.59" stroke="currentColor" stroke-width="1.5" stroke-linecap="round"/>
</svg> 