<?xml version="1.0" encoding="UTF-8"?>
<svg width="16" height="16" viewBox="0 0 16 16" fill="none" xmlns="http://www.w3.org/2000/svg">
  <path d="M8 1C4.136 1 1 4.136 1 8C1 11.864 4.136 15 8 15C11.864 15 15 11.864 15 8C15 4.136 11.864 1 8 1ZM13.84 8C13.84 8.416 13.792 8.824 13.712 9.216H11.672C11.704 8.824 11.728 8.416 11.728 8C11.728 7.584 11.704 7.176 11.672 6.784H13.712C13.792 7.176 13.84 7.584 13.84 8ZM2.16 8C2.16 7.584 2.208 7.176 2.288 6.784H4.328C4.296 7.176 4.272 7.584 4.272 8C4.272 8.416 4.296 8.824 4.328 9.216H2.288C2.208 8.824 2.16 8.416 2.16 8ZM10.568 6.784C10.6 7.176 10.624 7.584 10.624 8C10.624 8.416 10.6 8.824 10.568 9.216H5.432C5.4 8.824 5.376 8.416 5.376 8C5.376 7.584 5.4 7.176 5.432 6.784H10.568ZM12.808 5.68H11.04C10.768 4.304 10.296 3.056 9.664 2C11.488 2.504 12.976 3.872 12.808 5.68ZM9.92 5.68H6.08C6.352 4.304 6.824 3.056 7.456 2H8.544C9.176 3.056 9.648 4.304 9.92 5.68ZM6.336 2C5.704 3.056 5.232 4.304 4.96 5.68H3.192C3.024 3.872 4.512 2.504 6.336 2ZM3.192 10.32H4.96C5.232 11.696 5.704 12.944 6.336 14C4.512 13.496 3.024 12.128 3.192 10.32ZM6.08 10.32H9.92C9.648 11.696 9.176 12.944 8.544 14H7.456C6.824 12.944 6.352 11.696 6.08 10.32ZM9.664 14C10.296 12.944 10.768 11.696 11.04 10.32H12.808C12.976 12.128 11.488 13.496 9.664 14Z" fill="currentColor"/>
</svg> 