<svg t="1757987572493" class="icon" viewBox="0 0 1024 1024" version="1.1" xmlns="http://www.w3.org/2000/svg" p-id="5176" width="128" height="128"><path d="M994.236 310.716c15.974 0 29.013 11.707 29.013 26.248v419.601c0 21.402-12.561 40.21-31.403 50.518l-0.58 0.307-398.916 211.627c-0.341 0.204-0.853 0.41-1.195 0.648a31.437 31.437 0 0 1-13.858 3.209c-16.043 0-28.945-11.81-28.945-26.385V572.177c0-20.378 11.332-38.263 28.604-48.913 0-0.068 0.102-0.137 0.102-0.137l8.875-4.54 391.51-203.093 5.222-2.594a30.583 30.583 0 0 1 11.605-2.184z m-29.73-113.186s16.896 6.826 16.896 21.64c0 16.93-17.135 26.146-17.135 26.146L546.679 465.75l-5.802 3.004a70.656 70.656 0 0 1-29.082 6.144 70.656 70.656 0 0 1-28.74-6.042l-6.622-3.413-416.87-219.955s-18.944-11.264-18.944-26.283c0-14.097 18.227-21.64 18.227-21.64L474.078 10.923S498.313 0 511.795 0c13.517 0 37.854 10.923 37.854 10.923L964.506 197.53zM446.669 523.264c17.237 10.65 28.604 28.535 28.604 48.913V996.49c0 14.574-13.005 26.385-28.98 26.385a30.857 30.857 0 0 1-15.155-3.857L32.188 807.39l-0.478-0.341C12.902 796.774 0.375 778.035 0.375 756.565v-419.6c0-14.542 12.971-26.283 28.98-26.283 4.13 0 8.192 0.785 11.605 2.218l5.188 2.629 391.407 203.059 9.114 4.676z" p-id="5177" fill="#515151"></path></svg>