<svg viewBox="0 0 24 24" xmlns="http://www.w3.org/2000/svg" aria-hidden="true" fill="none" stroke="currentColor" stroke-width="1.6" stroke-linecap="round" stroke-linejoin="round">
  <path d="M12 15.5a3.5 3.5 0 1 0 0-7 3.5 3.5 0 0 0 0 7z" />
  <path d="M19.4 12a7.4 7.4 0 0 0 .05-.86l1.84-1.43-1.9-3.29-2.23.64a7.6 7.6 0 0 0-1.5-.86l-.35-2.3h-3.8l-.35 2.3a7.6 7.6 0 0 0-1.5.86l-2.23-.64-1.9 3.29 1.84 1.43c-.03.28-.05.57-.05.86s.02.58.05.86l-1.84 1.43 1.9 3.29 2.23-.64c.46.34.96.63 1.5.86l.35 2.3h3.8l.35-2.3c.54-.23 1.04-.52 1.5-.86l2.23.64 1.9-3.29-1.84-1.43c.03-.28.05-.57.05-.86z" />
</svg> 